name Walk10.mot
datacolumns 19
datarows 25
range 1.86000000 1.88400000
endheader

                time	   L_ground_force_vx	   L_ground_force_vy	   L_ground_force_vz	   L_ground_force_px	   L_ground_force_py	   L_ground_force_pz	   R_ground_force_vx	   R_ground_force_vy	   R_ground_force_vz	   R_ground_force_px	   R_ground_force_py	   R_ground_force_pz	   L_ground_torque_x	   L_ground_torque_y	   L_ground_torque_z	   R_ground_torque_x	   R_ground_torque_y	   R_ground_torque_z	
          1.86000000	        -47.72806723	        523.91533550	          9.43606385	          0.55512028	          0.00000000	          0.31032935	         -0.00585932	         -0.01936119	         -0.00002042	         -0.00000715	          0.00000000	          0.00005253	          0.00000000	         -1.11249680	          0.00000000	          0.00000000	          0.00007980	          0.00000000	
          1.86100000	        -47.29301774	        522.53605489	          9.51831978	          0.55555493	          0.00000000	          0.31028835	         -0.00627199	         -0.01999178	         -0.00009882	         -0.00000598	          0.00000000	          0.00004588	          0.00000000	         -1.11847668	          0.00000000	          0.00000000	          0.00006950	          0.00000000	
          1.86200000	        -46.86104078	        521.20623854	          9.61520048	          0.55598557	          0.00000000	          0.31024518	         -0.00662588	         -0.02049322	         -0.00017017	         -0.00000487	          0.00000000	          0.00003961	          0.00000000	         -1.12345690	          0.00000000	          0.00000000	          0.00005982	          0.00000000	
          1.86300000	        -46.43175752	        519.92586558	          9.72647312	          0.55641212	          0.00000000	          0.31019990	         -0.00692464	         -0.02087458	         -0.00023482	         -0.00000385	          0.00000000	          0.00003373	          0.00000000	         -1.12746495	          0.00000000	          0.00000000	          0.00005074	          0.00000000	
          1.86400000	        -46.00479979	        518.69493191	          9.85185309	          0.55683452	          0.00000000	          0.31015260	         -0.00717183	         -0.02114464	         -0.00029308	         -0.00000290	          0.00000000	          0.00002822	          0.00000000	         -1.13053298	          0.00000000	          0.00000000	          0.00004224	          0.00000000	
          1.86500000	        -45.57981203	        517.51345422	          9.99100657	          0.55725270	          0.00000000	          0.31010334	         -0.00737090	         -0.02131183	         -0.00034528	         -0.00000201	          0.00000000	          0.00002308	          0.00000000	         -1.13269728	          0.00000000	          0.00000000	          0.00003430	          0.00000000	
          1.86600000	        -45.15645278	        516.38147341	         10.14355355	          0.55766658	          0.00000000	          0.31005221	         -0.00752519	         -0.02138428	         -0.00039174	         -0.00000120	          0.00000000	          0.00001828	          0.00000000	         -1.13399766	          0.00000000	          0.00000000	          0.00002691	          0.00000000	
          1.86700000	        -44.73439561	        515.29905649	         10.30907087	          0.55807611	          0.00000000	          0.30999927	         -0.00763793	         -0.02136976	         -0.00043277	         -0.00000045	          0.00000000	          0.00001382	          0.00000000	         -1.13447687	          0.00000000	          0.00000000	          0.00002004	          0.00000000	
          1.86800000	        -44.31332945	        514.26629703	         10.48709520	          0.55848122	          0.00000000	          0.30994461	         -0.00771222	         -0.02127572	         -0.00046867	          0.00000024	          0.00000000	          0.00000969	          0.00000000	         -1.13418025	          0.00000000	          0.00000000	          0.00001368	          0.00000000	
          1.86900000	        -43.89295844	        513.28331446	         10.67712543	          0.55888186	          0.00000000	          0.30988831	         -0.00775105	         -0.02110929	         -0.00049975	          0.00000087	          0.00000000	          0.00000588	          0.00000000	         -1.13315540	          0.00000000	          0.00000000	          0.00000781	          0.00000000	
          1.87000000	        -43.47300161	        512.35025331	         10.87862472	          0.55927797	          0.00000000	          0.30983045	         -0.00775730	         -0.02087723	         -0.00052630	          0.00000144	          0.00000000	          0.00000236	          0.00000000	         -1.13145219	          0.00000000	          0.00000000	          0.00000241	          0.00000000	
          1.87100000	        -43.05319277	        511.46728289	         11.09102226	          0.55966949	          0.00000000	          0.30977113	         -0.00773369	         -0.02058602	         -0.00054860	          0.00000196	          0.00000000	         -0.00000086	          0.00000000	         -1.12912275	          0.00000000	          0.00000000	         -0.00000254	          0.00000000	
          1.87200000	        -42.63328064	        510.63459744	         11.31371488	          0.56005638	          0.00000000	          0.30971043	         -0.00768287	         -0.02024178	         -0.00056694	          0.00000243	          0.00000000	         -0.00000381	          0.00000000	         -1.12622152	          0.00000000	          0.00000000	         -0.00000706	          0.00000000	
          1.87300000	        -42.21302913	        509.85241648	         11.54606883	          0.56043858	          0.00000000	          0.30964847	         -0.00760734	         -0.01985031	         -0.00058157	          0.00000285	          0.00000000	         -0.00000649	          0.00000000	         -1.12280542	          0.00000000	          0.00000000	         -0.00001117	          0.00000000	
          1.87400000	        -41.79221762	        509.12098500	         11.78742159	          0.56081605	          0.00000000	          0.30958534	         -0.00750949	         -0.01941713	         -0.00059276	          0.00000322	          0.00000000	         -0.00000892	          0.00000000	         -1.11893386	          0.00000000	          0.00000000	         -0.00001488	          0.00000000	
          1.87500000	        -41.37064080	        508.44057333	         12.03708375	          0.56118875	          0.00000000	          0.30952116	         -0.00739158	         -0.01894740	         -0.00060076	          0.00000355	          0.00000000	         -0.00001111	          0.00000000	         -1.11466884	          0.00000000	          0.00000000	         -0.00001823	          0.00000000	
          1.87600000	        -40.94810830	        507.81147705	         12.29434079	          0.56155664	          0.00000000	          0.30945603	         -0.00725576	         -0.01844601	         -0.00060581	          0.00000383	          0.00000000	         -0.00001307	          0.00000000	         -1.11007485	          0.00000000	          0.00000000	         -0.00002122	          0.00000000	
          1.87700000	        -40.52444391	        507.23401709	         12.55845459	          0.56191969	          0.00000000	          0.30939005	         -0.00710407	         -0.01791755	         -0.00060814	          0.00000408	          0.00000000	         -0.00001481	          0.00000000	         -1.10521886	          0.00000000	          0.00000000	         -0.00002388	          0.00000000	
          1.87800000	        -40.09948446	        506.70854005	         12.82866488	          0.56227788	          0.00000000	          0.30932333	         -0.00693844	         -0.01736631	         -0.00060797	          0.00000429	          0.00000000	         -0.00001635	          0.00000000	         -1.10017009	          0.00000000	          0.00000000	         -0.00002622	          0.00000000	
          1.87900000	        -39.67307842	        506.23541835	         13.10419065	          0.56263121	          0.00000000	          0.30925598	         -0.00676066	         -0.01679632	         -0.00060552	          0.00000447	          0.00000000	         -0.00001770	          0.00000000	         -1.09499973	          0.00000000	          0.00000000	         -0.00002826	          0.00000000	
          1.88000000	        -39.24508413	        505.81504977	         13.38423175	          0.56297965	          0.00000000	          0.30918809	         -0.00657246	         -0.01621132	         -0.00060099	          0.00000461	          0.00000000	         -0.00001887	          0.00000000	         -1.08978050	          0.00000000	          0.00000000	         -0.00003002	          0.00000000	
          1.88100000	        -38.81536785	        505.44785601	         13.66797072	          0.56332321	          0.00000000	          0.30911977	         -0.00637543	         -0.01561480	         -0.00059458	          0.00000473	          0.00000000	         -0.00001986	          0.00000000	         -1.08458617	          0.00000000	          0.00000000	         -0.00003152	          0.00000000	
          1.88200000	        -38.38380158	        505.13427963	         13.95457466	          0.56366187	          0.00000000	          0.30905112	         -0.00617105	         -0.01501000	         -0.00058646	          0.00000482	          0.00000000	         -0.00002070	          0.00000000	         -1.07949105	          0.00000000	          0.00000000	         -0.00003278	          0.00000000	
          1.88300000	        -37.95026087	        504.87478002	         14.24319723	          0.56399562	          0.00000000	          0.30898225	         -0.00596073	         -0.01439990	         -0.00057682	          0.00000488	          0.00000000	         -0.00002139	          0.00000000	         -1.07456947	          0.00000000	          0.00000000	         -0.00003380	          0.00000000	
          1.88400000	        -37.51462287	        504.66982874	         14.53298058	          0.56432443	          0.00000000	          0.30891326	         -0.00574577	         -0.01378726	         -0.00056582	          0.00000492	          0.00000000	         -0.00002193	          0.00000000	         -1.06989546	          0.00000000	          0.00000000	         -0.00003461	          0.00000000	
